<?xml version="1.0" encoding="utf-8"?>
<!-- Generator: Adobe Illustrator 27.0.0, SVG Export Plug-In . SVG Version: 6.00 Build 0)  -->
<svg version="1.1" id="Layer_1" xmlns="http://www.w3.org/2000/svg" xmlns:xlink="http://www.w3.org/1999/xlink" x="0px" y="0px"
	 viewBox="0 0 212 87" style="enable-background:new 0 0 212 87;" xml:space="preserve">
<style type="text/css">
	.st0{fill:none;stroke:#044A6A;stroke-width:2;stroke-linecap:round;stroke-miterlimit:10;}
	.st1{display:none;opacity:0.15;fill:#FFFFFF;}
	.st2{display:none;opacity:0.18;fill:#FFFFFF;}
	.st3{clip-path:url(#SVGID_00000098932699995278427040000001893565538196569747_);}
	.st4{fill:#178FAA;}
	.st5{fill:#19ADC5;}
	.st6{clip-path:url(#SVGID_00000065058381159797280730000000598526674250485899_);}
	.st7{opacity:0.15;fill:#FFFFFF;}
	.st8{opacity:0.11;fill:#FFFFFF;}
	.st9{opacity:7.000000e-02;fill:#FFFFFF;}
	.st10{opacity:0.23;fill:#FFFFFF;}
	.st11{opacity:0.18;fill:#FFFFFF;}
	.st12{opacity:0.13;fill:#FFFFFF;}
</style>
<polyline id="A" class="st0" points="206.5,57.8 182.9,9.4 158.5,57.8 "/>
<polyline id="V" class="st0" points="4.8,8.7 28.4,57.2 52.8,8.7 "/>
<ellipse class="st1" cx="95.1" cy="44.4" rx="0.8" ry="0.8"/>
<ellipse class="st2" cx="65.7" cy="35.4" rx="0.8" ry="0.8"/>
<g>
	<defs>
		<path id="SVGID_1_" d="M133.9,9.1h-19.4v48h19.8l0,0C165.3,56.5,165.2,9.2,133.9,9.1z"/>
	</defs>
	<clipPath id="SVGID_00000091712420902996540170000012497873703116184234_">
		<use xlink:href="#SVGID_1_"  style="overflow:visible;"/>
	</clipPath>
	<g style="clip-path:url(#SVGID_00000091712420902996540170000012497873703116184234_);">
		<path class="st4" d="M156.9,34.4c0,0-6.1,5.7-27.9,0.8c-1.9-0.4-24.6-0.8-24.6-0.8l8.9,17.1l42.6-0.5L156.9,34.4z"/>
		<path class="st5" d="M157.3,33.9c-0.1,0.6-8.8,10.4-22.2,3.2c-9.4-5.1-32.2-2.8-32.2-2.8l10.8,24H158L157.3,33.9z"/>
	</g>
</g>
<g>
	<defs>
		
			<ellipse id="SVGID_00000106138750112978268460000013578108812950530950_" transform="matrix(0.7071 -0.7071 0.7071 0.7071 0.2581 66.2053)" cx="80" cy="32.8" rx="24" ry="24"/>
	</defs>
	<clipPath id="SVGID_00000155105738332607313830000008362873926054770075_">
		<use xlink:href="#SVGID_00000106138750112978268460000013578108812950530950_"  style="overflow:visible;"/>
	</clipPath>
	<g style="clip-path:url(#SVGID_00000155105738332607313830000008362873926054770075_);">
		<path class="st4" d="M51.5,34.9c0,0,3.6-3,27.3,1.3c11.1,2,28.3-2.6,28.3-2.6l-0.9,16.6l-54.4-3.1L51.5,34.9z"/>
		<path class="st5" d="M53.3,32.7c0,0,11.1,7.5,25.9,5.7c7.4-0.9,29-4.9,29-4.9l-2.3,25H52L53.3,32.7z"/>
	</g>
</g>
<circle id="O" class="st0" cx="80" cy="32.7" r="24"/>
<path id="D" class="st0" d="M133.9,8.7h-19.4v48h19.8v0C165.3,56.2,165.2,8.9,133.9,8.7z"/>
<g>
	<ellipse class="st7" cx="98.4" cy="39" rx="0.8" ry="0.8"/>
	<ellipse class="st8" cx="97.2" cy="36.2" rx="0.4" ry="0.4"/>
	<ellipse class="st7" cx="83.3" cy="41.7" rx="0.9" ry="0.9"/>
	<ellipse class="st9" cx="87.5" cy="49.3" rx="0.4" ry="0.4"/>
	<ellipse class="st7" cx="86.7" cy="42" rx="0.6" ry="0.5"/>
	<ellipse class="st7" cx="84.5" cy="39.1" rx="0.3" ry="0.3"/>
</g>
<g>
	<ellipse class="st10" cx="70.7" cy="42.3" rx="0.4" ry="0.4"/>
	<ellipse class="st7" cx="92.2" cy="50.7" rx="0.8" ry="0.8"/>
	<ellipse class="st8" cx="85" cy="51.9" rx="0.4" ry="0.4"/>
	<ellipse class="st7" cx="75.5" cy="51.4" rx="0.9" ry="0.9"/>
	<ellipse class="st11" cx="60.8" cy="40.7" rx="0.8" ry="0.8"/>
	<ellipse class="st10" cx="61" cy="42.4" rx="0.5" ry="0.5"/>
	<ellipse class="st7" cx="76.5" cy="52.8" rx="0.6" ry="0.5"/>
	<ellipse class="st7" cx="72.3" cy="51.8" rx="0.3" ry="0.3"/>
</g>
<g>
	<ellipse class="st10" cx="147.4" cy="41.7" rx="0.4" ry="0.4"/>
	<ellipse class="st12" cx="137.3" cy="42.9" rx="0.8" ry="0.8"/>
	<ellipse class="st11" cx="121.5" cy="45.1" rx="0.8" ry="0.8"/>
	<ellipse class="st10" cx="121.8" cy="46.9" rx="0.5" ry="0.5"/>
</g>
<g>
	<path class="st5" d="M69.4,81.4c-0.7,0-1-0.5-1-1.1c0-0.5,0.3-1,1-1h0.8v-9.7h-0.9c-0.7,0-1-0.6-1-1.1c0-0.5,0.4-1,1-1h7
		c2.9,0,5.5,1,5.5,4.5c0,3.5-2.7,4.5-5.5,4.5h-3.9v2.9h0.9c0.7,0,1,0.5,1,1.1c0,0.5-0.3,1-1,1H69.4z M72.5,74.2h3.9
		c1.7,0,3-0.5,3-2.3s-1.3-2.3-3-2.3h-3.9V74.2z"/>
	<path class="st5" d="M90.2,81.6c-4.4,0-7.6-3.2-7.6-7.1s3.2-7.2,7.6-7.2c4.4,0,7.6,3.2,7.6,7.2S94.6,81.6,90.2,81.6z M90.2,69.4
		c-2.9,0-5.1,2.2-5.1,5c0,2.8,2.2,5,5.1,5c2.9,0,5.1-2.2,5.1-5C95.3,71.7,93.1,69.4,90.2,69.4z"/>
	<path class="st5" d="M106.6,81.6c-4.4,0-7.6-3.2-7.6-7.1s3.2-7.2,7.6-7.2c4.4,0,7.6,3.2,7.6,7.2S111.1,81.6,106.6,81.6z
		 M106.6,69.4c-2.9,0-5.1,2.2-5.1,5c0,2.8,2.2,5,5.1,5c2.9,0,5.1-2.2,5.1-5C111.8,71.7,109.6,69.4,106.6,69.4z"/>
	<path class="st5" d="M119.4,69.5v9.7h6l0.4-1.6c0.1-0.5,0.6-0.8,1-0.8c0.6,0,1.3,0.5,1.1,1.3l-0.6,2.3c-0.1,0.5-0.4,0.9-1,0.9h-10
		c-0.7,0-1-0.5-1-1.1c0-0.5,0.3-1,1-1h0.8v-9.7h-0.9c-0.7,0-1-0.6-1-1.1c0-0.5,0.4-1,1-1h4c0.7,0,1,0.5,1,1.1s-0.3,1.1-1,1.1H119.4z
		"/>
	<path class="st5" d="M138.2,71.5c-0.7,0-1.4-0.4-1.4-1.4c0-0.1,0-0.2,0.1-0.3c-0.6-0.4-1.7-0.5-2.4-0.5c-1.4,0-3.1,0.2-3.1,1.8
		c0,2.7,8.7,1.1,8.7,6.5c0,3.6-3.6,4.1-6,4.1c-1.6,0-3.7-0.2-4.9-1.4c-0.4-0.4-0.7-1-0.7-1.7c0-0.9,0.7-1.4,1.4-1.4s1.4,0.5,1.5,1.4
		c0,0.2-0.1,0.4-0.1,0.5c0.7,0.5,2.1,0.6,2.8,0.6c1.9,0,3.6-0.5,3.6-2.1c0-3.1-8.7-1.2-8.7-6.4c0-3.7,4-3.9,5.5-3.9
		c1.4,0,3.5,0.2,4.6,1.3c0.3,0.4,0.6,0.9,0.6,1.5C139.7,71.1,139,71.5,138.2,71.5z"/>
</g>
<path id="a-stem" class="st0" d="M200.9,46.3c0,0-8.2,0-18.2,0s-18.2,0-18.2,0s8.2,0,18.2,0S200.9,46.3,200.9,46.3z"/>
</svg>
