<svg width="228" height="88" viewBox="0 0 228 88" fill="none" xmlns="http://www.w3.org/2000/svg">
<g id="logo-container" clip-path="url(#clip0_24_20)">
<rect width="228" height="88" fill="white"/>
<g id="a-container">
<path id="a-dark" d="M217.62 58.4279L194.06 8.8614L169.62 58.4279" stroke="#044A6A" stroke-width="2" stroke-miterlimit="10" stroke-linecap="round"/>
<path id="a-light-1" d="M217.62 58.4279L194.06 8.8614L169.62 58.4279" stroke="#19ADC5" stroke-width="2" stroke-miterlimit="10" stroke-linecap="round"/>
<path id="a-light-2" d="M217.62 58.4279L194.06 8.8614L169.62 58.4279" stroke="#178FAA" stroke-width="2" stroke-miterlimit="10" stroke-linecap="round"/>
<path id="a-light-3" d="M217.62 58.4279L194.06 8.8614L169.62 58.4279" stroke="#137493" stroke-width="2" stroke-miterlimit="10" stroke-linecap="round"/>
<path id="a-light-4" d="M217.62 58.4279L194.06 8.8614L169.62 58.4279" stroke="#0D5E7F" stroke-width="2" stroke-miterlimit="10" stroke-linecap="round"/>
<path id="a-light-5" d="M217.62 58.4279L194.06 8.8614L169.62 58.4279" stroke="#044A6A" stroke-width="2" stroke-miterlimit="10" stroke-linecap="round"/>
<line id="A-line" x1="175" y1="48.1163" x2="212" y2="48.1163" stroke="#044A6A" stroke-width="2" stroke-linecap="round"/>
</g>
<g id="v-container">
<path id="v-dark" d="M16 8.18604L39.56 57.7525L64 8.18604" stroke="#044A6A" stroke-width="2" stroke-miterlimit="10" stroke-linecap="round"/>
<path id="v-light-1" d="M16 8.18604L39.56 57.7525L64 8.18604" stroke="#19ADC5" stroke-width="2" stroke-miterlimit="10" stroke-linecap="round"/>
<path id="v-light-2" d="M16 8.18604L39.56 57.7525L64 8.18604" stroke="#178FAA" stroke-width="2" stroke-miterlimit="10" stroke-linecap="round"/>
<path id="v-light-3" d="M16 8.18604L39.56 57.7525L64 8.18604" stroke="#137493" stroke-width="2" stroke-miterlimit="10" stroke-linecap="round"/>
<path id="v-light-4" d="M16 8.18604L39.56 57.7525L64 8.18604" stroke="#0D5E7F" stroke-width="2" stroke-miterlimit="10" stroke-linecap="round"/>
<path id="v-light-5" d="M16 8.18604L39.56 57.7525L64 8.18604" stroke="#044A6A" stroke-width="2" stroke-miterlimit="10" stroke-linecap="round"/>
</g>
<path id="wave" fill-rule="evenodd" clip-rule="evenodd" d="M64 57.9005V34.9005C74.9986 32.0936 102.395 27.8836 123.992 34.6201C145.59 41.3565 202.316 37.4269 227.979 34.6201C246.144 31.9783 294.271 28.2799 341.465 34.6201C388.659 40.9603 432.67 39.6418 459.5 37C461.591 36.8105 463.813 36.6061 466.143 36.3917C494.266 33.8045 538.145 29.7678 558 33C578.878 36.3987 610.086 35.9239 618 34.9661V34.9005C628.999 32.0937 684 30.5 707 34.9005C729.22 39.1519 775.337 37.4269 801 34.6201C819.164 31.9783 848.271 28.2799 895.465 34.6201C942.659 40.9603 1008.12 37.2618 1034.95 34.6201C1062.28 32.1434 1122.14 28.6761 1142.93 34.6201C1158.7 39.1257 1163.53 37.5363 1167.99 36.0678C1169.42 35.599 1170.81 35.1425 1172.5 34.9005V57.9005L618.5 57.9005L618 57.9005L64 57.9005Z" fill="#19ADC5"/>
<path id="o-clip" d="M91.14 57.3126C104.395 57.3126 115.14 46.3175 115.14 32.7544C115.14 19.1913 104.395 8.19629 91.14 8.19629C77.8852 8.19629 67.14 19.1913 67.14 32.7544C67.14 46.3175 77.8852 57.3126 91.14 57.3126Z" fill="#24FF00"/>
<g id="o-container">
<path id="o-dark" d="M91.14 57.3126C104.395 57.3126 115.14 46.3175 115.14 32.7544C115.14 19.1913 104.395 8.19629 91.14 8.19629C77.8852 8.19629 67.14 19.1913 67.14 32.7544C67.14 46.3175 77.8852 57.3126 91.14 57.3126Z" stroke="#044A6A" stroke-width="2" stroke-miterlimit="10" stroke-linecap="round"/>
<path id="o-light-1" d="M91.14 57.3126C104.395 57.3126 115.14 46.3175 115.14 32.7544C115.14 19.1913 104.395 8.19629 91.14 8.19629C77.8852 8.19629 67.14 19.1913 67.14 32.7544C67.14 46.3175 77.8852 57.3126 91.14 57.3126Z" stroke="#19ADC5" stroke-width="2" stroke-miterlimit="10" stroke-linecap="round"/>
<path id="o-light-2" d="M91.14 57.3126C104.395 57.3126 115.14 46.3175 115.14 32.7544C115.14 19.1913 104.395 8.19629 91.14 8.19629C77.8852 8.19629 67.14 19.1913 67.14 32.7544C67.14 46.3175 77.8852 57.3126 91.14 57.3126Z" stroke="#178FAA" stroke-width="2" stroke-miterlimit="10" stroke-linecap="round"/>
<path id="o-light-3" d="M91.14 57.3126C104.395 57.3126 115.14 46.3175 115.14 32.7544C115.14 19.1913 104.395 8.19629 91.14 8.19629C77.8852 8.19629 67.14 19.1913 67.14 32.7544C67.14 46.3175 77.8852 57.3126 91.14 57.3126Z" stroke="#137493" stroke-width="2" stroke-miterlimit="10" stroke-linecap="round"/>
<path id="o-light-4" d="M91.14 57.3126C104.395 57.3126 115.14 46.3175 115.14 32.7544C115.14 19.1913 104.395 8.19629 91.14 8.19629C77.8852 8.19629 67.14 19.1913 67.14 32.7544C67.14 46.3175 77.8852 57.3126 91.14 57.3126Z" stroke="#0D5E7F" stroke-width="2" stroke-miterlimit="10" stroke-linecap="round"/>
<path id="o-light-5" d="M91.14 57.3126C104.395 57.3126 115.14 46.3175 115.14 32.7544C115.14 19.1913 104.395 8.19629 91.14 8.19629C77.8852 8.19629 67.14 19.1913 67.14 32.7544C67.14 46.3175 77.8852 57.3126 91.14 57.3126Z" stroke="#044A6A" stroke-width="2" stroke-miterlimit="10" stroke-linecap="round"/>
</g>
<path id="d-clip" d="M145.08 8.18604H125.63V57.3125H145.45C176.48 56.7702 176.34 8.32929 145.08 8.18604V8.18604Z" fill="#24FF00"/>
<g id="d-container">
<path id="d-dark" d="M145.08 8.18604H125.63V57.3125H145.45C176.48 56.7702 176.34 8.32929 145.08 8.18604V8.18604Z" stroke="#044A6A" stroke-width="2" stroke-miterlimit="10" stroke-linecap="round"/>
<path id="d-light-1" d="M145.08 8.18604H125.63V57.3125H145.45C176.48 56.7702 176.34 8.32929 145.08 8.18604V8.18604Z" stroke="#19ADC5" stroke-width="2" stroke-miterlimit="10" stroke-linecap="round"/>
<path id="d-light-2" d="M145.08 8.18604H125.63V57.3125H145.45C176.48 56.7702 176.34 8.32929 145.08 8.18604V8.18604Z" stroke="#178FAA" stroke-width="2" stroke-miterlimit="10" stroke-linecap="round"/>
<path id="d-light-3" d="M145.08 8.18604H125.63V57.3125H145.45C176.48 56.7702 176.34 8.32929 145.08 8.18604V8.18604Z" stroke="#137493" stroke-width="2" stroke-miterlimit="10" stroke-linecap="round"/>
<path id="d-light-4" d="M145.08 8.18604H125.63V57.3125H145.45C176.48 56.7702 176.34 8.32929 145.08 8.18604V8.18604Z" stroke="#0D5E7F" stroke-width="2" stroke-miterlimit="10" stroke-linecap="round"/>
<path id="d-lihgt-5" d="M145.08 8.18604H125.63V57.3125H145.45C176.48 56.7702 176.34 8.32929 145.08 8.18604V8.18604Z" stroke="#044A6A" stroke-width="2" stroke-miterlimit="10" stroke-linecap="round"/>
</g>
<g id="bubbles">
<path id="Vector" opacity="0.15" d="M109.53 39.5386C109.961 39.5386 110.31 39.1859 110.31 38.7507C110.31 38.3156 109.961 37.9628 109.53 37.9628C109.099 37.9628 108.75 38.3156 108.75 38.7507C108.75 39.1859 109.099 39.5386 109.53 39.5386Z" fill="white"/>
<path id="Vector_2" opacity="0.11" d="M108.36 36.2233C108.575 36.2233 108.75 36.0492 108.75 35.8344C108.75 35.6197 108.575 35.4456 108.36 35.4456C108.145 35.4456 107.97 35.6197 107.97 35.8344C107.97 36.0492 108.145 36.2233 108.36 36.2233Z" fill="white"/>
<path id="Vector_3" opacity="0.15" d="M94.42 42.4549C94.9391 42.4549 95.36 42.0334 95.36 41.5135C95.36 40.9936 94.9391 40.5721 94.42 40.5721C93.9008 40.5721 93.48 40.9936 93.48 41.5135C93.48 42.0334 93.9008 42.4549 94.42 42.4549Z" fill="white"/>
<path id="Vector_4" opacity="0.07" d="M98.7 49.6893C98.9154 49.6893 99.09 49.5152 99.09 49.3005C99.09 49.0857 98.9154 48.9116 98.7 48.9116C98.4846 48.9116 98.31 49.0857 98.31 49.3005C98.31 49.5152 98.4846 49.6893 98.7 49.6893Z" fill="white"/>
<path id="Vector_5" opacity="0.15" d="M97.81 42.414C98.1192 42.414 98.37 42.162 98.37 41.8512C98.37 41.5403 98.1192 41.2884 97.81 41.2884C97.5007 41.2884 97.25 41.5403 97.25 41.8512C97.25 42.162 97.5007 42.414 97.81 42.414Z" fill="white"/>
<path id="Vector_6" opacity="0.15" d="M95.64 39.0781C95.8001 39.0781 95.93 38.9499 95.93 38.7916C95.93 38.6334 95.8001 38.5051 95.64 38.5051C95.4798 38.5051 95.35 38.6334 95.35 38.7916C95.35 38.9499 95.4798 39.0781 95.64 39.0781Z" fill="white"/>
</g>
<g id="bubbles_2">
<path id="Vector_7" opacity="0.23" d="M81.81 42.4753C82.0254 42.4753 82.2 42.3012 82.2 42.0865C82.2 41.8718 82.0254 41.6977 81.81 41.6977C81.5946 41.6977 81.42 41.8718 81.42 42.0865C81.42 42.3012 81.5946 42.4753 81.81 42.4753Z" fill="white"/>
<path id="Vector_8" opacity="0.15" d="M103.35 51.5414C103.781 51.5414 104.13 51.1886 104.13 50.7535C104.13 50.3183 103.781 49.9656 103.35 49.9656C102.919 49.9656 102.57 50.3183 102.57 50.7535C102.57 51.1886 102.919 51.5414 103.35 51.5414Z" fill="white"/>
<path id="Vector_9" opacity="0.11" d="M96.18 52.3191C96.3954 52.3191 96.57 52.145 96.57 51.9302C96.57 51.7155 96.3954 51.5414 96.18 51.5414C95.9646 51.5414 95.79 51.7155 95.79 51.9302C95.79 52.145 95.9646 52.3191 96.18 52.3191Z" fill="white"/>
<path id="Vector_10" opacity="0.15" d="M86.68 52.3702C87.1992 52.3702 87.62 51.9487 87.62 51.4288C87.62 50.9089 87.1992 50.4874 86.68 50.4874C86.1609 50.4874 85.74 50.9089 85.74 51.4288C85.74 51.9487 86.1609 52.3702 86.68 52.3702Z" fill="white"/>
<path id="Vector_11" opacity="0.18" d="M71.92 41.2474C72.3508 41.2474 72.7 40.8947 72.7 40.4595C72.7 40.0244 72.3508 39.6716 71.92 39.6716C71.4892 39.6716 71.14 40.0244 71.14 40.4595C71.14 40.8947 71.4892 41.2474 71.92 41.2474Z" fill="white"/>
<path id="Vector_12" opacity="0.23" d="M72.2 42.7312C72.4762 42.7312 72.7 42.5067 72.7 42.2298C72.7 41.9528 72.4762 41.7284 72.2 41.7284C71.9239 41.7284 71.7 41.9528 71.7 42.2298C71.7 42.5067 71.9239 42.7312 72.2 42.7312Z" fill="white"/>
<path id="Vector_13" opacity="0.15" d="M87.63 53.3935C87.9393 53.3935 88.19 53.1415 88.19 52.8307C88.19 52.5199 87.9393 52.2679 87.63 52.2679C87.3207 52.2679 87.07 52.5199 87.07 52.8307C87.07 53.1415 87.3207 53.3935 87.63 53.3935Z" fill="white"/>
<path id="Vector_14" opacity="0.15" d="M83.46 52.1042C83.6202 52.1042 83.75 51.9759 83.75 51.8177C83.75 51.6594 83.6202 51.5312 83.46 51.5312C83.2999 51.5312 83.17 51.6594 83.17 51.8177C83.17 51.9759 83.2999 52.1042 83.46 52.1042Z" fill="white"/>
</g>
<g id="bubbles_3">
<path id="Vector_15" opacity="0.23" d="M158.55 41.9023C158.765 41.9023 158.94 41.7282 158.94 41.5135C158.94 41.2987 158.765 41.1246 158.55 41.1246C158.335 41.1246 158.16 41.2987 158.16 41.5135C158.16 41.7282 158.335 41.9023 158.55 41.9023Z" fill="white"/>
<path id="Vector_16" opacity="0.13" d="M148.44 43.4884C148.871 43.4884 149.22 43.1356 149.22 42.7005C149.22 42.2653 148.871 41.9126 148.44 41.9126C148.009 41.9126 147.66 42.2653 147.66 42.7005C147.66 43.1356 148.009 43.4884 148.44 43.4884Z" fill="white"/>
<path id="Vector_17" opacity="0.18" d="M132.66 45.8009C133.091 45.8009 133.44 45.4482 133.44 45.013C133.44 44.5779 133.091 44.2251 132.66 44.2251C132.229 44.2251 131.88 44.5779 131.88 45.013C131.88 45.4482 132.229 45.8009 132.66 45.8009Z" fill="white"/>
<path id="Vector_18" opacity="0.23" d="M132.95 47.2744C133.226 47.2744 133.45 47.0499 133.45 46.773C133.45 46.4961 133.226 46.2716 132.95 46.2716C132.674 46.2716 132.45 46.4961 132.45 46.773C132.45 47.0499 132.674 47.2744 132.95 47.2744Z" fill="white"/>
</g>
<g id="POOLS">
<path id="Vector_19" d="M80.56 82.1265C79.86 82.1265 79.52 81.5739 79.52 81.0009C79.52 80.4688 79.86 79.9367 80.56 79.9367H81.4V69.9907H80.52C79.84 69.9907 79.48 69.4176 79.48 68.8651C79.48 68.3125 79.84 67.8009 80.52 67.8009H87.56C90.44 67.8009 93.06 68.8242 93.06 72.3646C93.06 75.9051 90.4 76.9488 87.56 76.9488H83.68V79.9367H84.56C85.24 79.9367 85.58 80.4893 85.58 81.0623C85.58 81.5944 85.24 82.1265 84.56 82.1265H80.56V82.1265ZM83.68 74.759H87.56C89.22 74.759 90.52 74.2679 90.52 72.3646C90.52 70.4614 89.22 69.9907 87.56 69.9907H83.68V74.759Z" fill="#19ADC5"/>
<path id="Vector_20" d="M101.36 82.3311C96.94 82.3311 93.76 79.0772 93.76 75.0251C93.76 70.973 96.94 67.6986 101.36 67.6986C105.78 67.6986 109 70.973 109 75.0251C109 79.0772 105.8 82.3311 101.36 82.3311ZM101.36 69.8883C98.44 69.8883 96.28 72.1804 96.28 75.0251C96.28 77.8697 98.44 80.1414 101.36 80.1414C104.28 80.1414 106.48 77.8493 106.48 75.0251C106.48 72.2009 104.3 69.8883 101.36 69.8883Z" fill="#19ADC5"/>
<path id="Vector_21" d="M117.8 82.3311C113.38 82.3311 110.2 79.0772 110.2 75.0251C110.2 70.973 113.38 67.6986 117.8 67.6986C122.22 67.6986 125.44 70.973 125.44 75.0251C125.44 79.0772 122.24 82.3311 117.8 82.3311ZM117.8 69.8883C114.88 69.8883 112.72 72.1804 112.72 75.0251C112.72 77.8697 114.88 80.1414 117.8 80.1414C120.72 80.1414 122.92 77.8493 122.92 75.0251C122.92 72.2009 120.74 69.8883 117.8 69.8883Z" fill="#19ADC5"/>
<path id="Vector_22" d="M130.54 69.9907V79.9367H136.58L137.02 78.279C137.16 77.747 137.58 77.5014 138.02 77.5014C138.66 77.5014 139.32 78.013 139.1 78.8521L138.48 81.1851C138.42 81.6558 138.08 82.1265 137.46 82.1265H127.42C126.72 82.1265 126.38 81.5739 126.38 81.0009C126.38 80.4688 126.72 79.9367 127.42 79.9367H128.26V69.9907H127.38C126.7 69.9907 126.34 69.4176 126.34 68.8651C126.34 68.3125 126.7 67.8009 127.38 67.8009H131.4C132.06 67.8009 132.4 68.3535 132.4 68.906C132.4 69.4586 132.06 69.9907 131.4 69.9907H130.54V69.9907Z" fill="#19ADC5"/>
<path id="Vector_23" d="M149.4 71.9963C148.68 71.9963 147.96 71.546 147.96 70.6046C147.96 70.4614 148 70.359 148.08 70.2772C147.46 69.9088 146.38 69.7451 145.7 69.7451C144.28 69.7451 142.56 69.9702 142.56 71.546C142.56 74.3497 151.22 72.6307 151.22 78.1767C151.22 81.8604 147.62 82.3311 145.26 82.3311C143.62 82.3311 141.52 82.147 140.36 80.919C139.94 80.4688 139.66 79.9162 139.66 79.1386C139.66 78.2176 140.38 77.6856 141.08 77.6856C141.78 77.6856 142.5 78.1563 142.56 79.1181C142.56 79.3228 142.5 79.4865 142.42 79.6297C143.16 80.1823 144.5 80.2846 145.26 80.2846C147.12 80.2846 148.82 79.7935 148.82 78.1767C148.82 75.0456 140.16 76.9079 140.16 71.6688C140.16 67.9032 144.12 67.6986 145.7 67.6986C147.1 67.6986 149.2 67.8828 150.28 69.0697C150.62 69.4586 150.86 69.9497 150.86 70.6046C150.86 71.546 150.12 71.9963 149.4 71.9963V71.9963Z" fill="#19ADC5"/>
</g>
</g>
<defs>
<clipPath id="clip0_24_20">
<rect width="228" height="88" fill="white"/>
</clipPath>
</defs>
</svg>
