<svg width="570" height="97" viewBox="0 0 570 97" fill="none" xmlns="http://www.w3.org/2000/svg">
<g id="wave" clip-path="url(#clip0_14_2)">
<rect width="570" height="97" fill="white"/>
<circle id="clip" cx="65" cy="42" r="25" fill="#D9D9D9"/>
<circle id="clip-2" cx="132" cy="42" r="25" fill="#D9D9D9"/>
<g id="wave-3">
<path id="wave-3_2" d="M-42 41.3749V67.8749H97V41.3749C95 39.8748 92.3584 34.0026 81.5 39.5466C64 48.4816 54.7588 48.2285 51 45.5466C42.5 39.4817 29.7869 31.5176 13 42.3749C-3.5 53.0466 -17 50.5466 -21 49.0466C-25 47.5466 -40.5 40.7082 -42 41.3749Z" fill="#0E6371"/>
</g>
<path id="wave-1" fill-rule="evenodd" clip-rule="evenodd" d="M33 71.5V45.0469C34.5 46.0469 40 49 44 50.5C44.4369 50.6638 44.826 50.8375 45.2033 51.0059C48.2803 52.3794 50.5666 53.3999 71.5 45.8283C90.3 39.0283 103.5 39.7634 112 45.8283C115.759 48.5102 129 53.7633 146.5 44.8283C157.358 39.2843 172 43.3283 174 44.8283V44.8125C175.5 45.8125 181 49 185 50.5C185.437 50.6638 185.826 50.8375 186.203 51.0059C189.28 52.3794 191.567 53.3999 212.5 45.8283C231.3 39.0283 244.5 39.7634 253 45.8283C256.759 48.5102 270 53.7633 287.5 44.8283C298.358 39.2843 313 43.3283 315 44.8283V71.3283L174 71.5V71.3283L33 71.5Z" fill="#19ADC5"/>
</g>
<defs>
<clipPath id="clip0_14_2">
<rect width="570" height="97" fill="white"/>
</clipPath>
</defs>
</svg>
